<svg width="600" height="400" viewBox="0 0 600 400" xmlns="http://www.w3.org/2000/svg">
  <rect width="600" height="400" fill="#f9fafb"/>
  
  <!-- Header -->
  <rect y="0" width="600" height="60" fill="white"/>
  <text x="24" y="35" font-family="Arial, sans-serif" font-size="20" font-weight="600" fill="#111827">Our Team</text>
  <rect x="480" y="18" width="100" height="28" rx="6" fill="#2563eb"/>
  <text x="530" y="37" text-anchor="middle" font-family="Arial, sans-serif" font-size="13" font-weight="600" fill="white">+ Add Pro</text>
  
  <!-- Team member card 1 -->
  <rect x="24" y="80" width="552" height="80" rx="8" fill="white" stroke="#e5e7eb" stroke-width="1"/>
  <circle cx="56" cy="120" r="20" fill="#dbeafe"/>
  <text x="88" y="116" font-family="Arial, sans-serif" font-size="15" font-weight="600" fill="#111827">Sarah Chen, CPA</text>
  <text x="88" y="132" font-family="Arial, sans-serif" font-size="13" fill="#6b7280">IRS Representation • 15+ yrs</text>
  <rect x="480" y="104" width="16" height="16" fill="none" stroke="#9ca3af" stroke-width="1.5" rx="2"/>
  <rect x="520" y="108" width="40" height="8" rx="2" fill="#22c55e" opacity="0.3"/>
  <text x="540" y="116" text-anchor="middle" font-family="Arial, sans-serif" font-size="11" fill="#16a34a">Public</text>
  
  <!-- Team member card 2 -->
  <rect x="24" y="170" width="552" height="80" rx="8" fill="white" stroke="#e5e7eb" stroke-width="1"/>
  <circle cx="56" cy="210" r="20" fill="#dbeafe"/>
  <text x="88" y="206" font-family="Arial, sans-serif" font-size="15" font-weight="600" fill="#111827">Mike Rodriguez, EA</text>
  <text x="88" y="222" font-family="Arial, sans-serif" font-size="13" fill="#6b7280">1040 Overflow • QuickBooks Expert</text>
  <rect x="480" y="194" width="16" height="16" fill="none" stroke="#9ca3af" stroke-width="1.5" rx="2"/>
  <path d="M483 202 L493 202" stroke="#9ca3af" stroke-width="1.5"/>
  
  <!-- Team member card 3 -->
  <rect x="24" y="260" width="552" height="80" rx="8" fill="white" stroke="#e5e7eb" stroke-width="1"/>
  <circle cx="56" cy="300" r="20" fill="#dbeafe"/>
  <text x="88" y="296" font-family="Arial, sans-serif" font-size="15" font-weight="600" fill="#111827">Jennifer Park, CPA</text>
  <text x="88" y="312" font-family="Arial, sans-serif" font-size="13" fill="#6b7280">Partnership K-1s • Cost Seg</text>
  <rect x="480" y="284" width="16" height="16" fill="none" stroke="#9ca3af" stroke-width="1.5" rx="2"/>
  <rect x="520" y="288" width="40" height="8" rx="2" fill="#22c55e" opacity="0.3"/>
  <text x="540" y="296" text-anchor="middle" font-family="Arial, sans-serif" font-size="11" fill="#16a34a">Public</text>
</svg>


